<svg width="170" height="170" viewBox="0 0 170 170" fill="none" xmlns="http://www.w3.org/2000/svg">
<path d="M40.25 35L48.2188 125L84 135L119.769 125.006L127.75 35H40.25Z" fill="#2196F3"/>
<path d="M110.713 64.4313L109.706 75.7375L106.669 109.631L84.0001 115.9L83.9813 115.906L61.3251 109.631L59.7438 91.9063H70.8438L71.6688 101.1L83.9876 104.425L83.9938 104.419L96.3313 101.094L98.0126 85.775L59.2125 85.8813L58.1125 75.4063L98.9438 74.925L99.7688 63.7125L57.0188 63.8313L56.3 53.4H84.0001H111.7L110.713 64.4313Z" fill="#FAFAFA"/>
<g filter="url(#filter0_d)">
<rect x="22.5" y="22.5" width="125" height="125" rx="27.5" stroke="#1666C3" stroke-width="5"/>
<rect x="22.5" y="22.5" width="125" height="125" rx="27.5" stroke="url(#paint0_linear)" stroke-width="5"/>
</g>
<defs>
<filter id="filter0_d" x="0" y="0" width="170" height="170" filterUnits="userSpaceOnUse" color-interpolation-filters="sRGB">
<feFlood flood-opacity="0" result="BackgroundImageFix"/>
<feColorMatrix in="SourceAlpha" type="matrix" values="0 0 0 0 0 0 0 0 0 0 0 0 0 0 0 0 0 0 127 0"/>
<feOffset/>
<feGaussianBlur stdDeviation="10"/>
<feColorMatrix type="matrix" values="0 0 0 0 0 0 0 0 0 0 0 0 0 0 0 0 0 0 0.25 0"/>
<feBlend mode="normal" in2="BackgroundImageFix" result="effect1_dropShadow"/>
<feBlend mode="normal" in="SourceGraphic" in2="effect1_dropShadow" result="shape"/>
</filter>
<linearGradient id="paint0_linear" x1="150" y1="150" x2="20" y2="20" gradientUnits="userSpaceOnUse">
<stop stop-color="#00FFE0"/>
<stop offset="1" stop-color="white" stop-opacity="0"/>
</linearGradient>
</defs>
</svg>
