<svg width="170" height="170" viewBox="0 0 170 170" fill="none" xmlns="http://www.w3.org/2000/svg">
<g filter="url(#filter0_d)">
<rect x="22.5" y="22.5" width="125" height="125" rx="27.5" stroke="#1666C3" stroke-width="5"/>
<rect x="22.5" y="22.5" width="125" height="125" rx="27.5" stroke="url(#paint0_linear)" stroke-width="5"/>
</g>
<g clip-path="url(#clip0)">
<path d="M41.2965 38.3104L47.7867 121.341C47.8841 122.588 48.7281 123.651 49.9203 124.029L84.0719 134.857C84.6758 135.048 85.3242 135.048 85.9281 134.857L120.08 124.029C121.272 123.651 122.116 122.588 122.213 121.341L128.704 38.3104C128.843 36.5253 127.432 35 125.642 35H44.3584C42.568 35 41.1571 36.5253 41.2965 38.3104ZM112.06 64.072H69.762L71.0385 75.8433H111.14L108.517 109.402L85.0001 116.858L61.4837 109.402L60.1132 91.8695H72.4564V100.469L85.33 103.924L98.1266 100.469L99.1193 86.7636H59.714L57.0978 53.2931H112.902L112.06 64.072Z" fill="#FC490B"/>
</g>
<defs>
<filter id="filter0_d" x="0" y="0" width="170" height="170" filterUnits="userSpaceOnUse" color-interpolation-filters="sRGB">
<feFlood flood-opacity="0" result="BackgroundImageFix"/>
<feColorMatrix in="SourceAlpha" type="matrix" values="0 0 0 0 0 0 0 0 0 0 0 0 0 0 0 0 0 0 127 0"/>
<feOffset/>
<feGaussianBlur stdDeviation="10"/>
<feColorMatrix type="matrix" values="0 0 0 0 0 0 0 0 0 0 0 0 0 0 0 0 0 0 0.25 0"/>
<feBlend mode="normal" in2="BackgroundImageFix" result="effect1_dropShadow"/>
<feBlend mode="normal" in="SourceGraphic" in2="effect1_dropShadow" result="shape"/>
</filter>
<linearGradient id="paint0_linear" x1="150" y1="150" x2="20" y2="20" gradientUnits="userSpaceOnUse">
<stop stop-color="#00FFE0"/>
<stop offset="1" stop-color="white" stop-opacity="0"/>
</linearGradient>
<clipPath id="clip0">
<rect width="100" height="100" fill="white" transform="translate(35 35)"/>
</clipPath>
</defs>
</svg>
