<svg width="170" height="170" viewBox="0 0 170 170" fill="none" xmlns="http://www.w3.org/2000/svg">
<g filter="url(#filter0_d)">
<rect x="22.5" y="22.5" width="125" height="125" rx="27.5" stroke="#1666C3" stroke-width="5"/>
<rect x="22.5" y="22.5" width="125" height="125" rx="27.5" stroke="url(#paint0_linear)" stroke-width="5"/>
</g>
<path d="M131 131H39V39H131V131Z" fill="#FEC478"/>
<path d="M131 131H85V39H131V131Z" fill="#FEA832"/>
<path d="M125.609 125.609H44.3906V44.3906H125.609V125.609Z" fill="#994C0F"/>
<path d="M125.609 125.609H85V44.3906H125.609V125.609Z" fill="#713708"/>
<path d="M76.2855 71.6312H81.5468L93.1905 102.25H87.0668L84.2205 94.6168H73.5255L70.7224 102.25H64.5986L76.2855 71.6312ZM83.1424 90.4337L78.9161 78.4018L74.5174 90.4337H83.1424Z" fill="#FEC478"/>
<path d="M95.9937 76.5043V70.7687H101.772V76.5043H95.9937V76.5043ZM95.9937 102.25V79.6524H101.772V102.25H95.9937Z" fill="#FEA832"/>
<path d="M85 80.712V96.7075L87.0668 102.25H93.1905L85 80.712Z" fill="#FEA832"/>
<defs>
<filter id="filter0_d" x="0" y="0" width="170" height="170" filterUnits="userSpaceOnUse" color-interpolation-filters="sRGB">
<feFlood flood-opacity="0" result="BackgroundImageFix"/>
<feColorMatrix in="SourceAlpha" type="matrix" values="0 0 0 0 0 0 0 0 0 0 0 0 0 0 0 0 0 0 127 0"/>
<feOffset/>
<feGaussianBlur stdDeviation="10"/>
<feColorMatrix type="matrix" values="0 0 0 0 0 0 0 0 0 0 0 0 0 0 0 0 0 0 0.25 0"/>
<feBlend mode="normal" in2="BackgroundImageFix" result="effect1_dropShadow"/>
<feBlend mode="normal" in="SourceGraphic" in2="effect1_dropShadow" result="shape"/>
</filter>
<linearGradient id="paint0_linear" x1="150" y1="150" x2="20" y2="20" gradientUnits="userSpaceOnUse">
<stop stop-color="#00FFE0"/>
<stop offset="1" stop-color="white" stop-opacity="0"/>
</linearGradient>
</defs>
</svg>
