<svg width="170" height="170" viewBox="0 0 170 170" fill="none" xmlns="http://www.w3.org/2000/svg">
<g filter="url(#filter0_d)">
<rect x="22.5" y="22.5" width="125" height="125" rx="27.5" stroke="#1666C3" stroke-width="5"/>
<rect x="22.5" y="22.5" width="125" height="125" rx="27.5" stroke="url(#paint0_linear)" stroke-width="5"/>
</g>
<path d="M130.414 34.208C129.988 33.7443 129.39 33.48 128.761 33.48H41.2394C40.6099 33.48 40.0119 33.7443 39.5863 34.208C39.1607 34.6717 38.9523 35.2944 39.0083 35.9193L46.8931 124.236C46.976 125.159 47.6189 125.936 48.5104 126.191L84.3728 136.435C84.5722 136.491 84.7805 136.52 84.9866 136.52C85.1927 136.52 85.401 136.491 85.6003 136.435L121.494 126.191C122.386 125.936 123.029 125.159 123.111 124.236L130.992 35.9193C131.048 35.2944 130.837 34.6717 130.414 34.208ZM55.88 93.9689L71.56 98.319V53.64H80.52V111.88L55.88 105.046V93.9689ZM114.241 78.28L111.88 105.72L89.48 111.88V101.574L104.6 97.4185L105.16 89.0185L89.48 91.72V53.64H116.36L115.587 62.6H98.44V80.52L114.241 78.28Z" fill="#D4D816"/>
<defs>
<filter id="filter0_d" x="0" y="0" width="170" height="170" filterUnits="userSpaceOnUse" color-interpolation-filters="sRGB">
<feFlood flood-opacity="0" result="BackgroundImageFix"/>
<feColorMatrix in="SourceAlpha" type="matrix" values="0 0 0 0 0 0 0 0 0 0 0 0 0 0 0 0 0 0 127 0"/>
<feOffset/>
<feGaussianBlur stdDeviation="10"/>
<feColorMatrix type="matrix" values="0 0 0 0 0 0 0 0 0 0 0 0 0 0 0 0 0 0 0.25 0"/>
<feBlend mode="normal" in2="BackgroundImageFix" result="effect1_dropShadow"/>
<feBlend mode="normal" in="SourceGraphic" in2="effect1_dropShadow" result="shape"/>
</filter>
<linearGradient id="paint0_linear" x1="150" y1="150" x2="20" y2="20" gradientUnits="userSpaceOnUse">
<stop stop-color="#00FFE0"/>
<stop offset="1" stop-color="white" stop-opacity="0"/>
</linearGradient>
</defs>
</svg>
