<svg width="170" height="170" viewBox="0 0 170 170" fill="none" xmlns="http://www.w3.org/2000/svg">
<g filter="url(#filter0_d)">
<rect x="22.5" y="22.5" width="125" height="125" rx="27.5" stroke="#1666C3" stroke-width="5"/>
<rect x="22.5" y="22.5" width="125" height="125" rx="27.5" stroke="url(#paint0_linear)" stroke-width="5"/>
</g>
<path d="M121.848 46.8252L94.7224 39.0751C94.3 38.954 93.8492 38.98 93.4436 39.1487L46.9424 58.5243C46.2222 58.8256 45.7532 59.5298 45.7528 60.3107V110.687C45.7528 111.75 46.6085 112.614 47.671 112.625C46.6009 112.631 45.7388 113.504 45.7455 114.574C45.7506 115.407 46.2872 116.143 47.0781 116.403L93.5793 131.903C93.7771 131.967 93.9836 132 94.1916 132C94.3712 131.999 94.55 131.973 94.7225 131.922L121.848 124.172C122.679 123.935 123.253 123.177 123.255 122.312V48.6853C123.253 47.821 122.679 47.0621 121.848 46.8252ZM48.5583 112.419L60.1836 106.606C60.8392 106.278 61.2531 105.608 61.2531 104.874V63.7633L96.129 55.0443V120.053L47.9847 112.648C47.8937 112.632 47.8017 112.625 47.7095 112.624C48.0043 112.621 48.2944 112.55 48.5583 112.419Z" fill="#FF5722"/>
<defs>
<filter id="filter0_d" x="0" y="0" width="170" height="170" filterUnits="userSpaceOnUse" color-interpolation-filters="sRGB">
<feFlood flood-opacity="0" result="BackgroundImageFix"/>
<feColorMatrix in="SourceAlpha" type="matrix" values="0 0 0 0 0 0 0 0 0 0 0 0 0 0 0 0 0 0 127 0"/>
<feOffset/>
<feGaussianBlur stdDeviation="10"/>
<feColorMatrix type="matrix" values="0 0 0 0 0 0 0 0 0 0 0 0 0 0 0 0 0 0 0.25 0"/>
<feBlend mode="normal" in2="BackgroundImageFix" result="effect1_dropShadow"/>
<feBlend mode="normal" in="SourceGraphic" in2="effect1_dropShadow" result="shape"/>
</filter>
<linearGradient id="paint0_linear" x1="150" y1="150" x2="20" y2="20" gradientUnits="userSpaceOnUse">
<stop stop-color="#00FFE0"/>
<stop offset="1" stop-color="white" stop-opacity="0"/>
</linearGradient>
</defs>
</svg>
