<svg width="170" height="170" viewBox="0 0 170 170" fill="none" xmlns="http://www.w3.org/2000/svg">
<g filter="url(#filter0_d)">
<rect x="22.5" y="22.5" width="125" height="125" rx="27.5" stroke="#1666C3" stroke-width="5"/>
<rect x="22.5" y="22.5" width="125" height="125" rx="27.5" stroke="url(#paint0_linear)" stroke-width="5"/>
</g>
<g clip-path="url(#clip0)">
<path d="M41.8959 40H129.104C130.151 40 131 40.8489 131 41.8959V129.104C131 130.151 130.151 131 129.104 131H41.8959C40.8489 131 40 130.151 40 129.104V41.8959C40 40.8489 40.8489 40 41.8959 40Z" fill="#90CAF9"/>
<path d="M49.479 47.5834H121.521C122.568 47.5834 123.417 48.4322 123.417 49.4793V121.521C123.417 122.568 122.568 123.417 121.521 123.417H49.479C48.432 123.417 47.5831 122.568 47.5831 121.521V49.4791C47.5833 48.4321 48.432 47.5834 49.479 47.5834Z" fill="#283593"/>
<path d="M68.4375 104.458C67.3904 104.458 66.5416 103.609 66.5416 102.562V68.4375C66.533 67.4821 67.2365 66.6695 68.1833 66.5416C73.7306 65.7832 81.2836 65.7188 85.8032 69.6734C88.148 71.7556 89.4293 74.7836 89.2916 77.9166C89.2516 81.7615 87.2188 85.31 83.9226 87.2896C79.8713 89.8102 75.0343 90.7522 70.3332 89.9362V102.562C70.3334 103.609 69.4845 104.458 68.4375 104.458ZM70.3334 86.0536C74.2757 86.9234 78.4018 86.2317 81.8449 84.1236C84.0843 82.856 85.4778 80.49 85.5 77.9166C85.6231 75.8858 84.8168 73.909 83.3083 72.5438C79.4581 70.0918 74.8084 69.2248 70.3332 70.1247V86.0536H70.3334Z" fill="#90CAF9"/>
<path d="M100.826 104.545C98.2183 104.565 95.6854 103.674 93.6633 102.028C92.9105 101.295 92.8945 100.09 93.6273 99.3376C94.3602 98.5847 95.5646 98.5687 96.3174 99.3015C98.1451 100.655 100.5 101.076 102.684 100.439C103.127 100.249 104.481 99.6806 104.481 96.8863C104.481 94.3801 103.131 93.6709 99.8135 92.5448C96.9584 91.5665 93.0832 90.2621 93.0832 85.4999C92.8925 82.5471 94.5833 79.7943 97.3033 78.6294C100.808 77.2756 104.772 77.9272 107.658 80.332C108.42 81.0512 108.453 82.2515 107.734 83.0127C107.015 83.774 105.815 83.8079 105.053 83.0886C103.268 81.7309 100.919 81.3644 98.8048 82.1141C97.4898 82.6985 96.7078 84.0704 96.875 85.4999C96.875 87.3692 98.0125 87.9304 101.004 88.9466C104.079 89.9817 108.25 91.3998 108.25 96.8749C108.541 99.8625 106.887 102.701 104.144 103.92C103.091 104.348 101.962 104.561 100.826 104.545Z" fill="#90CAF9"/>
</g>
<defs>
<filter id="filter0_d" x="0" y="0" width="170" height="170" filterUnits="userSpaceOnUse" color-interpolation-filters="sRGB">
<feFlood flood-opacity="0" result="BackgroundImageFix"/>
<feColorMatrix in="SourceAlpha" type="matrix" values="0 0 0 0 0 0 0 0 0 0 0 0 0 0 0 0 0 0 127 0"/>
<feOffset/>
<feGaussianBlur stdDeviation="10"/>
<feColorMatrix type="matrix" values="0 0 0 0 0 0 0 0 0 0 0 0 0 0 0 0 0 0 0.25 0"/>
<feBlend mode="normal" in2="BackgroundImageFix" result="effect1_dropShadow"/>
<feBlend mode="normal" in="SourceGraphic" in2="effect1_dropShadow" result="shape"/>
</filter>
<linearGradient id="paint0_linear" x1="150" y1="150" x2="20" y2="20" gradientUnits="userSpaceOnUse">
<stop stop-color="#00FFE0"/>
<stop offset="1" stop-color="white" stop-opacity="0"/>
</linearGradient>
<clipPath id="clip0">
<rect width="91" height="91" fill="white" transform="translate(40 40)"/>
</clipPath>
</defs>
</svg>
